<?xml version="1.0" standalone="no"?>
<!DOCTYPE svg PUBLIC "-//W3C//DTD SVG 20010904//EN"
 "http://www.w3.org/TR/2001/REC-SVG-20010904/DTD/svg10.dtd">
<svg version="1.0" xmlns="http://www.w3.org/2000/svg"
 width="700.000000pt" height="700.000000pt" viewBox="0 0 700.000000 700.000000"
 preserveAspectRatio="xMidYMid meet">
<metadata>
Created by potrace 1.14, written by Peter Selinger 2001-2017
</metadata>
<g transform="translate(0.000000,700.000000) scale(0.100000,-0.100000)"
fill="#000000" stroke="none">
<path d="M6 6412 c-3 -3 -6 -1315 -6 -2917 l0 -2911 778 2 c427 1 804 5 837 8
67 7 140 16 170 21 11 2 45 6 75 10 30 4 58 9 61 11 4 2 22 6 42 9 19 3 93 22
163 41 71 19 134 36 139 37 6 1 15 5 20 8 6 4 22 9 36 12 14 4 43 14 65 23 21
10 44 18 49 20 43 8 408 189 413 205 2 5 8 9 14 9 11 0 207 126 223 144 6 6
35 29 65 52 30 23 73 56 95 75 61 52 274 267 330 333 28 32 55 64 61 70 5 6
42 56 82 111 89 124 174 266 245 410 55 111 147 332 147 354 0 6 4 19 9 29 6
9 16 37 23 61 12 41 17 45 73 65 110 40 163 84 310 256 49 58 102 119 116 135
68 77 378 436 414 479 22 27 45 54 50 60 6 6 48 56 95 111 47 55 87 102 90
105 3 3 28 32 55 65 66 80 80 95 105 125 12 14 52 60 89 104 l66 78 3 -1820 2
-1820 693 1 692 2 0 2650 c0 1458 -3 2666 -7 2685 -50 242 -180 409 -369 471
-55 18 -89 21 -239 23 -276 2 -434 -9 -510 -34 -160 -54 -259 -126 -430 -316
-30 -33 -91 -100 -135 -148 -44 -49 -89 -98 -100 -110 -80 -88 -182 -201 -190
-210 -5 -6 -53 -58 -106 -116 -52 -58 -111 -123 -130 -144 -19 -21 -39 -44
-44 -50 -108 -117 -152 -165 -212 -231 -86 -97 -223 -247 -308 -339 -6 -6 -39
-44 -74 -84 -36 -40 -68 -69 -71 -65 -4 4 -29 57 -55 117 -223 505 -591 945
-1043 1250 -46 31 -85 56 -87 56 -2 0 -32 17 -66 38 -281 170 -691 314 -1019
357 -25 3 -56 8 -70 11 -14 2 -64 7 -110 11 -109 8 -1607 13 -1614 5z m1541
-1424 c4 -3 20 -5 36 -6 23 -2 76 -12 191 -37 111 -25 282 -95 396 -164 248
-148 452 -373 574 -631 44 -95 74 -173 82 -219 3 -13 9 -32 15 -43 5 -10 8
-18 5 -18 -3 0 1 -21 9 -47 49 -171 51 -455 4 -668 -149 -673 -733 -1168
-1416 -1199 l-73 -3 0 1521 0 1521 85 -1 c46 -1 88 -4 92 -6z"/>
</g>
</svg>
